# xmcd
#
# Track frame offsets:
#	150
#	27077
#	46045
#	70309
#	93588
#	124298
#	151297
#	178972
#	199463
#	225022
#	261284
#
# Disc length: 3717 seconds
#
# Revision: 0
# Processed by: cddbd v1.5.1PL0 Copyright (c) Steve Scherf et al.
# Submitted via: EasyCDDAExtractor 4.6.9.1
#
DISCID=920e830b
DTITLE=Depeche Mode - Live Moscow 05.09.1998
DYEAR=1998
DGENRE=live
TTITLE0=Home
TTITLE1=Condemnation
TTITLE2=In Your Room
TTITLE3=Useless
TTITLE4=Enjoy The Silence
TTITLE5=Personal Jesus
TTITLE6=Barrel Of A Gun
TTITLE7=Somebody
TTITLE8=Stripped
TTITLE9=I Feel You
TTITLE10=Just Can't Get Enough
EXTD=
EXTT0=
EXTT1=
EXTT2=
EXTT3=
EXTT4=
EXTT5=
EXTT6=
EXTT7=
EXTT8=
EXTT9=
EXTT10=
PLAYORDER=
